<svg width="24" height="24" viewBox="0 0 24 24" fill="none" xmlns="http://www.w3.org/2000/svg">
<path fill-rule="evenodd" clip-rule="evenodd" d="M5.64567 6.62239L4.16057 6.62239C3.66836 6.62233 3.21989 6.62227 2.86095 6.67475C2.46629 6.73245 2.0459 6.87044 1.73263 7.25294C1.42278 7.63127 1.36502 8.06955 1.37647 8.46805C1.38704 8.8362 1.46262 9.28678 1.54675 9.78832L2.76633 17.0635C2.95899 18.2128 3.11482 19.1425 3.32926 19.8694C3.55205 20.6246 3.86196 21.2505 4.41968 21.7337C4.97968 22.2189 5.63874 22.4296 6.40855 22.5281C7.14504 22.6224 8.06548 22.6224 9.19663 22.6224L14.0536 22.6224C14.4775 22.6224 14.8719 22.6224 15.238 22.6175C15.1647 22.3821 15.1251 22.1319 15.1251 21.8724L15.1251 20.3724L13.6251 20.3724C12.2444 20.3724 11.1251 19.2531 11.1251 17.8724C11.1251 16.4917 12.2444 15.3724 13.6251 15.3724L15.1251 15.3724L15.1251 13.8724C15.1251 12.4917 16.2444 11.3724 17.6251 11.3724C19.0058 11.3724 20.1251 12.4917 20.1251 13.8724L20.1251 15.3724L20.7674 15.3724L21.7035 9.78829C21.7876 9.28676 21.8632 8.83619 21.8738 8.46805C21.8852 8.06955 21.8275 7.63127 21.5176 7.25294C21.2044 6.87044 20.784 6.73245 20.3893 6.67475C20.0304 6.62227 19.5819 6.62233 19.0897 6.62239L17.6046 6.62239C17.3505 3.54262 14.7705 1.12239 11.6251 1.12239C8.4798 1.12239 5.89975 3.54262 5.64567 6.62239ZM7.65608 6.62239L15.5942 6.62239C15.3481 4.64923 13.6649 3.12239 11.6251 3.12239C9.58533 3.12239 7.90213 4.64923 7.65608 6.62239Z" fill="#346E3C"/>
<path d="M17.6251 12.8724C18.1774 12.8724 18.6251 13.3201 18.6251 13.8724L18.6251 16.8724L21.6251 16.8724C22.1774 16.8724 22.6251 17.3201 22.6251 17.8724C22.6251 18.4247 22.1774 18.8724 21.6251 18.8724L18.6251 18.8724L18.6251 21.8724C18.6251 22.4247 18.1774 22.8724 17.6251 22.8724C17.0729 22.8724 16.6251 22.4247 16.6251 21.8724L16.6251 18.8724L13.6251 18.8724C13.0729 18.8724 12.6251 18.4247 12.6251 17.8724C12.6251 17.3201 13.0729 16.8724 13.6251 16.8724L16.6251 16.8724L16.6251 13.8724C16.6251 13.3201 17.0729 12.8724 17.6251 12.8724Z" fill="#346E3C"/>
</svg>
