<svg width="24" height="24" viewBox="0 0 24 24" fill="none" xmlns="http://www.w3.org/2000/svg">
<path d="M20.9995 12C20.9995 12 20.9995 12 20.9995 12C20.9995 11.5568 20.8047 11.162 20.6411 10.8906C20.461 10.5918 20.2225 10.2892 19.9677 10.0008C19.4559 9.4216 18.7926 8.80434 18.1551 8.25084C17.5127 7.69303 16.8731 7.18002 16.396 6.80767C16.1593 6.62291 15.7406 6.30672 15.5962 6.19767L15.5925 6.19487C15.1478 5.86736 14.5218 5.96236 14.1943 6.40706C13.8668 6.85173 13.9618 7.47768 14.4064 7.80521C14.5396 7.90576 14.9359 8.20515 15.1656 8.38437C15.6259 8.74365 16.2364 9.23357 16.8439 9.76105C17.3225 10.1765 17.7853 10.6034 18.1679 11L3.99951 11C3.44723 11 2.99951 11.4477 2.99951 12C2.99951 12.5523 3.44723 13 3.99951 13L18.1679 13C17.7853 13.3966 17.3225 13.8235 16.8439 14.2389C16.2364 14.7664 15.6259 15.2564 15.1656 15.6156C14.9359 15.7948 14.5396 16.0942 14.4064 16.1948C13.9618 16.5223 13.8668 17.1483 14.1943 17.5929C14.5218 18.0376 15.1478 18.1326 15.5925 17.8051L15.5965 17.8021C15.7409 17.6931 16.1593 17.3771 16.396 17.1923C16.8731 16.82 17.5127 16.307 18.1551 15.7492C18.7926 15.1957 19.4559 14.5784 19.9677 13.9992C20.2225 13.7108 20.461 13.4082 20.6411 13.1094C20.8047 12.8381 20.9995 12.4431 20.9995 12Z" fill="#346E3C"/>
</svg>
