<svg width="20" height="20" viewBox="0 0 20 20" fill="none" xmlns="http://www.w3.org/2000/svg">
<path d="M3.33434 12.4139C2.71524 11.7813 2.2482 11.0161 1.96861 10.1763C1.68901 9.33645 1.60419 8.44399 1.72056 7.56651C1.83693 6.68903 2.15145 5.84954 2.64029 5.11163C3.12913 4.37372 3.77946 3.75675 4.54205 3.30743C5.30463 2.85811 6.15945 2.58824 7.04177 2.51826C7.92408 2.44828 8.81076 2.58002 9.63462 2.90351C10.4585 3.22699 11.1979 3.73374 11.797 4.38537C12.396 5.03699 12.8389 5.8164 13.0921 6.66457H14.5837C15.3883 6.66448 16.1715 6.92318 16.8177 7.40246C17.464 7.88174 17.9389 8.55618 18.1725 9.32615C18.406 10.0961 18.3857 10.9208 18.1146 11.6784C17.8435 12.4359 17.3359 13.0862 16.6669 13.5331M6.6672 12.4979H6.67553M6.6672 15.8313H6.67553M10.0003 14.1646H10.0087M10.0003 17.498H10.0087M13.3335 12.4979H13.3418M13.3335 15.8313H13.3418" stroke="#6366F1" stroke-width="2" stroke-linecap="round"/>
</svg>
