<svg width="24" height="24" viewBox="0 0 24 24" fill="none" xmlns="http://www.w3.org/2000/svg">
<path fill-rule="evenodd" clip-rule="evenodd" d="M4.14538 3.35515C7.12636 1.52662 9.80059 2.25537 11.4161 3.46861C11.6819 3.6682 11.8643 3.8048 12.0001 3.89704C12.1359 3.8048 12.3183 3.6682 12.5841 3.46861C14.1996 2.25537 16.8738 1.52662 19.8548 3.35515C21.9161 4.61952 23.0759 7.2606 22.6689 10.2951C22.26 13.3443 20.2864 16.7929 16.1068 19.8865C16.0718 19.9124 16.0371 19.9381 16.0027 19.9635C14.5514 21.0384 13.5902 21.7503 12.0001 21.7503C10.41 21.7503 9.44885 21.0384 7.99747 19.9635C7.96307 19.9381 7.9284 19.9124 7.89343 19.8865C3.71383 16.7929 1.74024 13.3443 1.3313 10.2951C0.924312 7.2606 2.08414 4.61952 4.14538 3.35515ZM11.8434 3.99369C11.8401 3.99514 11.8407 3.99467 11.8447 3.99305C11.8442 3.99329 11.8438 3.99351 11.8434 3.99369ZM12.1554 3.99305C12.1595 3.99467 12.1601 3.99514 12.1568 3.99369C12.1564 3.99351 12.156 3.99329 12.1554 3.99305ZM10.5154 4.66804C9.31885 3.76948 7.31201 3.17245 4.92969 4.63377C3.47156 5.52819 2.47353 7.52746 2.81798 10.0957C3.16047 12.6493 4.84762 15.7659 8.78582 18.6808C10.368 19.8519 10.9455 20.2503 12.0001 20.2503C13.0547 20.2503 13.6322 19.8519 15.2144 18.6808C19.1526 15.7659 20.8397 12.6493 21.1822 10.0957C21.5267 7.52746 20.5286 5.52819 19.0705 4.63377C16.6882 3.17245 14.6813 3.76948 13.4848 4.66804L13.4639 4.68375C13.1935 4.88682 12.9613 5.06124 12.7755 5.18287C12.6789 5.24609 12.572 5.31047 12.461 5.36061C12.3557 5.4082 12.1939 5.46774 12.0001 5.46774C11.8063 5.46774 11.6445 5.4082 11.5392 5.36061C11.4282 5.31047 11.3213 5.24609 11.2247 5.18287C11.0389 5.06124 10.8066 4.8868 10.5362 4.68372L10.5154 4.66804Z" fill="#1F1F1F" fill-opacity="0.8"/>
</svg>
