<svg width="16" height="16" viewBox="0 0 16 16" fill="none" xmlns="http://www.w3.org/2000/svg">
<g clip-path="url(#clip0_1943_36700)">
<path d="M1.33276 14.0031C1.33276 12.0031 2.56617 10.4297 4.71962 10.003C6.33304 9.68296 7.9998 8.66958 8.66651 8.00288M7.33292 13.3364C6.16223 13.34 5.03296 12.9034 4.16909 12.1133C3.30522 11.3232 2.76985 10.2373 2.66915 9.071C2.56846 7.90466 2.9098 6.74307 3.62548 5.81662C4.34116 4.89017 5.3789 4.26653 6.53288 4.06939C10.3331 3.33602 11.3331 2.98934 12.6666 1.33594C13.3333 2.66933 14 4.12272 14 6.6695C14 10.3363 10.8131 13.3364 7.33292 13.3364Z" stroke="#10B981" stroke-width="2" stroke-linecap="round"/>
</g>
<defs>
<clipPath id="clip0_1943_36700">
<rect width="16" height="16" fill="white"/>
</clipPath>
</defs>
</svg>
