<svg width="16" height="16" viewBox="0 0 16 16" fill="none" xmlns="http://www.w3.org/2000/svg">
<path d="M12.8485 11.5308C13.5309 10.594 13.9273 9.47957 13.9898 8.32226C14.0045 8.05229 13.6838 7.91164 13.4545 8.05496C12.6874 8.53431 11.7805 8.73957 10.8818 8.63723C9.98304 8.53489 9.14552 8.131 8.50591 7.49147C7.8663 6.85195 7.46236 6.01454 7.36001 5.11592C7.25765 4.2173 7.46294 3.31052 7.94235 2.54357C8.08569 2.31493 7.94435 1.99363 7.67435 2.0083C6.5169 2.07089 5.40236 2.46737 4.46547 3.14979C3.52857 3.83222 2.80942 4.77138 2.39496 5.85375C1.9805 6.93612 1.88846 8.11535 2.12998 9.2489C2.3715 10.3824 2.93623 11.4218 3.75591 12.2413C4.57559 13.0608 5.61512 13.6253 6.74884 13.8667C7.88257 14.108 9.06195 14.0159 10.1444 13.6014C11.2269 13.1868 12.1661 12.4677 12.8485 11.5308Z" stroke="#6366F1" stroke-width="2" stroke-linecap="round"/>
</svg>
