<svg width="24" height="24" viewBox="0 0 24 24" fill="none" xmlns="http://www.w3.org/2000/svg">
<path fill-rule="evenodd" clip-rule="evenodd" d="M2.25005 17.161L2.25005 6.49974C2.25005 5.70394 2.81533 5.2157 3.26546 4.91803C3.71504 4.62073 4.35405 4.31808 5.07878 3.97482L8.19093 2.5004C9.75557 1.75824 10.8276 1.24974 12.0001 1.24974C13.1725 1.24974 14.2445 1.75824 15.8092 2.5004L18.9213 3.97478C19.646 4.31806 20.2851 4.62072 20.7346 4.91803C21.1848 5.2157 21.7501 5.70394 21.7501 6.49974L21.7501 17.161C21.7501 18.2814 20.9327 19.0266 19.9267 19.6302C18.9083 20.2413 17.199 20.9634 15.3059 21.7631C13.8869 22.363 12.9721 22.7497 12.0001 22.7497C11.028 22.7497 10.1132 22.363 8.69418 21.7631C6.80108 20.9634 5.09177 20.2413 4.07338 19.6302C3.0674 19.0266 2.25005 18.2814 2.25005 17.161ZM5.3294 11.6642C5.51464 11.2937 5.96515 11.1436 6.33563 11.3288L8.33563 12.3288C8.70611 12.514 8.85628 12.9646 8.67104 13.335C8.4858 13.7055 8.03529 13.8557 7.66481 13.6704L5.66481 12.6704C5.29433 12.4852 5.14416 12.0347 5.3294 11.6642ZM12.0001 3.1599C11.3304 3.1599 10.6848 3.44098 8.84258 4.31372L5.99441 5.66301C5.18372 6.04706 4.67582 6.29038 4.35748 6.50081C4.67582 6.71124 5.18372 6.95455 5.99441 7.3386L7.06875 7.84756L14.7149 4.10467C13.206 3.39542 12.6132 3.1599 12.0001 3.1599ZM16.9315 5.15406L9.28533 8.89694C10.7943 9.60619 11.3871 9.84171 12.0001 9.84172C12.6698 9.84172 13.3154 9.56063 15.1577 8.68789L18.0058 7.3386C18.8165 6.95455 19.3244 6.71123 19.6428 6.5008C19.3244 6.29038 18.8165 6.04706 18.0058 5.66301L16.9315 5.15406Z" fill="#346E3C"/>
</svg>
