<svg width="16" height="16" viewBox="0 0 16 16" fill="none" xmlns="http://www.w3.org/2000/svg">
<path d="M8.22668 14.6367C10.9997 13.67 13.3328 12.0032 13.3328 8.66981V4.00299C13.3328 3.82617 13.2626 3.6566 13.1376 3.53157C13.0126 3.40654 12.843 3.3363 12.6662 3.3363C11.333 3.3363 9.6732 2.54294 8.50665 1.52291C8.36543 1.40224 8.18578 1.33594 8.00004 1.33594C7.81429 1.33594 7.63464 1.40224 7.49342 1.52291C6.33354 2.53628 4.66704 3.3363 3.33384 3.3363C3.15704 3.3363 2.98749 3.40654 2.86248 3.53157C2.73747 3.6566 2.66724 3.82617 2.66724 4.00299V8.66981C2.66724 12.0032 5.00034 13.67 7.78006 14.63C7.92374 14.6835 8.08147 14.6859 8.22668 14.6367Z" stroke="#F59E0B" stroke-width="2" stroke-linecap="round"/>
</svg>
