<svg width="16" height="16" viewBox="0 0 16 16" fill="none" xmlns="http://www.w3.org/2000/svg">
<path d="M9.33356 9.6959V2.66926C9.33356 2.31564 9.19306 1.97651 8.94296 1.72646C8.69286 1.47641 8.35366 1.33594 7.99996 1.33594C7.64627 1.33594 7.30707 1.47641 7.05697 1.72646C6.80687 1.97651 6.66636 2.31564 6.66636 2.66926V9.6959C6.15788 9.98941 5.76048 10.4425 5.53579 10.9848C5.3111 11.5271 5.27168 12.1284 5.42365 12.6955C5.57561 13.2625 5.91047 13.7635 6.37628 14.1209C6.84209 14.4782 7.41282 14.6719 7.99996 14.6719C8.58711 14.6719 9.15784 14.4782 9.62365 14.1209C10.0895 13.7635 10.4243 13.2625 10.5763 12.6955C10.7282 12.1284 10.6888 11.5271 10.4641 10.9848C10.2394 10.4425 9.84204 9.98941 9.33356 9.6959Z" stroke="#F97316" stroke-width="2" stroke-linecap="round"/>
</svg>
