<svg width="24" height="24" viewBox="0 0 24 24" fill="none" xmlns="http://www.w3.org/2000/svg">
<g clip-path="url(#clip0_1943_36641)">
<path d="M12.0005 0C8.74158 0 8.33259 0.0142504 7.05262 0.072501C5.77514 0.131002 4.90316 0.333254 4.14017 0.630007C3.35094 0.93651 2.68145 1.34651 2.01447 2.01377C1.34698 2.68078 0.936987 3.35029 0.629493 4.13929C0.331999 4.90255 0.129503 5.77481 0.0720043 7.05183C0.0147555 8.33184 -0.000244141 8.74109 -0.000244141 12.0001C-0.000244141 15.2592 0.0142558 15.6669 0.0722547 16.9469C0.131003 18.2244 0.333249 19.0965 0.629744 19.8595C0.936487 20.6487 1.34648 21.3182 2.01372 21.9852C2.68045 22.6527 3.34994 23.0638 4.13867 23.3703C4.90216 23.667 5.77439 23.8693 7.05162 23.9278C8.33159 23.986 8.74033 24.0003 11.999 24.0003C15.2582 24.0003 15.6659 23.986 16.9459 23.9278C18.2234 23.8693 19.0964 23.667 19.8599 23.3703C20.6488 23.0638 21.3173 22.6527 21.9841 21.9852C22.6516 21.3182 23.0616 20.6487 23.369 19.8597C23.664 19.0965 23.8665 18.2242 23.9265 16.9472C23.984 15.6672 23.999 15.2592 23.999 12.0001C23.999 8.74109 23.984 8.33209 23.9265 7.05208C23.8665 5.77456 23.664 4.90255 23.369 4.13954C23.0616 3.35029 22.6516 2.68078 21.9841 2.01377C21.3166 1.34626 20.6491 0.93626 19.8591 0.630007C19.0941 0.333254 18.2216 0.131002 16.9442 0.072501C15.6642 0.0142504 15.2567 0 11.9968 0H12.0005ZM10.924 2.16252C11.2435 2.16202 11.6 2.16252 12.0005 2.16252C15.2045 2.16252 15.5842 2.17402 16.8494 2.23152C18.0194 2.28502 18.6544 2.48053 19.0774 2.64478C19.6374 2.86228 20.0366 3.12228 20.4564 3.54229C20.8763 3.96229 21.1363 4.3623 21.3543 4.9223C21.5186 5.34481 21.7143 5.97981 21.7676 7.14983C21.8251 8.41484 21.8376 8.79484 21.8376 11.9974C21.8376 15.1999 21.8251 15.5799 21.7676 16.8449C21.7141 18.0149 21.5186 18.65 21.3543 19.0725C21.1368 19.6325 20.8763 20.0312 20.4564 20.451C20.0364 20.871 19.6376 21.131 19.0774 21.3485C18.6549 21.5135 18.0194 21.7085 16.8494 21.762C15.5844 21.8195 15.2045 21.832 12.0005 21.832C8.79633 21.832 8.41659 21.8195 7.15162 21.762C5.98164 21.708 5.34665 21.5125 4.92341 21.3482C4.36342 21.1307 3.96343 20.8707 3.54344 20.4507C3.12344 20.0307 2.86345 19.6317 2.64545 19.0715C2.48121 18.649 2.28546 18.0139 2.23221 16.8439C2.17471 15.5789 2.16321 15.1989 2.16321 11.9944C2.16321 8.78984 2.17471 8.41184 2.23221 7.14683C2.28571 5.97682 2.48121 5.34181 2.64545 4.9188C2.86295 4.3588 3.12344 3.95879 3.54344 3.53879C3.96343 3.11878 4.36342 2.85878 4.92341 2.64078C5.3464 2.47578 5.98164 2.28078 7.15162 2.22702C8.25859 2.17702 8.68758 2.16202 10.924 2.15952V2.16252ZM18.4059 4.15505C17.6109 4.15505 16.9659 4.7993 16.9659 5.59456C16.9659 6.38957 17.6109 7.03458 18.4059 7.03458C19.2009 7.03458 19.8459 6.38957 19.8459 5.59456C19.8459 4.79955 19.2009 4.15455 18.4059 4.15455V4.15505ZM12.0005 5.83756C8.59734 5.83756 5.83814 8.59684 5.83814 12.0001C5.83814 15.4034 8.59734 18.1614 12.0005 18.1614C15.4037 18.1614 18.1619 15.4034 18.1619 12.0001C18.1619 8.59684 15.4037 5.83756 12.0005 5.83756ZM12.0005 8.00009C14.2095 8.00009 16.0004 9.79086 16.0004 12.0001C16.0004 14.2092 14.2095 16.0002 12.0005 16.0002C9.79131 16.0002 8.0006 14.2092 8.0006 12.0001C8.0006 9.79086 9.79131 8.00009 12.0005 8.00009Z" fill="white" fill-opacity="0.8"/>
</g>
<defs>
<clipPath id="clip0_1943_36641">
<rect width="24" height="24" fill="white"/>
</clipPath>
</defs>
</svg>
