<svg width="16" height="16" viewBox="0 0 16 16" fill="none" xmlns="http://www.w3.org/2000/svg">
<path d="M8.53334 13.063C8.70237 13.1898 8.8991 13.2745 9.10733 13.3104C9.31556 13.3462 9.52932 13.332 9.73099 13.269C9.93267 13.206 10.1165 13.096 10.2673 12.9481C10.4181 12.8001 10.5316 12.6185 10.5984 12.4181C10.6652 12.2176 10.6835 12.0042 10.6516 11.7954C10.6197 11.5866 10.5387 11.3883 10.4151 11.2169C10.2916 11.0456 10.1291 10.906 9.94103 10.8097C9.75295 10.7135 9.54469 10.6633 9.3334 10.6633H1.33276M11.6669 5.33046C11.8374 5.10321 12.0631 4.9233 12.3227 4.80781C12.5823 4.69232 12.8671 4.64509 13.1501 4.6706C13.433 4.69611 13.7048 4.79351 13.9395 4.95357C14.1742 5.11362 14.3641 5.331 14.4912 5.58508C14.6183 5.83916 14.6782 6.12149 14.6655 6.40527C14.6527 6.68905 14.5676 6.96485 14.4182 7.20649C14.2689 7.44814 14.0602 7.64759 13.812 7.78592C13.5639 7.92425 13.2845 7.99686 13.0004 7.99686H1.33276M6.53318 2.9307C6.70221 2.80395 6.89894 2.71918 7.10717 2.68336C7.3154 2.64755 7.52916 2.66172 7.73083 2.72471C7.93251 2.78769 8.11633 2.89769 8.26714 3.04564C8.41795 3.1936 8.53144 3.37526 8.59826 3.57567C8.66507 3.77608 8.6833 3.98949 8.65143 4.19832C8.61957 4.40715 8.53853 4.60542 8.41499 4.7768C8.29145 4.94817 8.12894 5.08774 7.94087 5.184C7.75279 5.28026 7.54453 5.33046 7.33324 5.33046H1.33276" stroke="#F59E0B" stroke-width="2" stroke-linecap="round"/>
</svg>
