<svg width="16" height="16" viewBox="0 0 16 16" fill="none" xmlns="http://www.w3.org/2000/svg">
<g clip-path="url(#clip0_1943_36704)">
<path d="M2.3105 9.22832C2.41734 9.29539 2.54101 9.33077 2.66716 9.33034H7.3333C7.44112 9.32999 7.54742 9.3558 7.64308 9.40557C7.73874 9.45534 7.8209 9.52757 7.88251 9.61607C7.94412 9.70457 7.98335 9.8067 7.99683 9.9137C8.01031 10.0207 7.99763 10.1294 7.9599 10.2304L6.68004 14.244C6.65999 14.3169 6.66532 14.3944 6.69515 14.4639C6.72498 14.5334 6.77754 14.5907 6.8442 14.6263C6.91086 14.662 6.98767 14.6739 7.06201 14.6602C7.13635 14.6464 7.20381 14.6078 7.25331 14.5506L13.8526 7.75024C13.932 7.65227 13.9821 7.53374 13.9969 7.40845C14.0117 7.28316 13.9906 7.15624 13.9362 7.04243C13.8817 6.92862 13.7961 6.83261 13.6893 6.76553C13.5824 6.69846 13.4588 6.66308 13.3326 6.66351H8.66648C8.55866 6.66386 8.45236 6.63805 8.3567 6.58828C8.26104 6.53851 8.17888 6.46628 8.11727 6.37778C8.05566 6.28928 8.01643 6.18715 8.00295 6.08015C7.98947 5.97315 8.00215 5.86448 8.03989 5.76346L9.31974 1.74989C9.33979 1.67698 9.33447 1.59942 9.30464 1.52995C9.27481 1.46047 9.22224 1.4032 9.15558 1.36753C9.08892 1.33187 9.01211 1.31993 8.93777 1.33368C8.86343 1.34743 8.79598 1.38605 8.74647 1.4432L2.14721 8.24361C2.06774 8.34159 2.0177 8.46011 2.0029 8.5854C1.98809 8.71069 2.00914 8.83761 2.06359 8.95142C2.11804 9.06523 2.20366 9.16124 2.3105 9.22832Z" stroke="#10B981" stroke-width="2" stroke-linecap="round"/>
</g>
<defs>
<clipPath id="clip0_1943_36704">
<rect width="16" height="16" fill="white"/>
</clipPath>
</defs>
</svg>
